<?xml version="1.0" encoding="utf-8"?>
<!-- Generator: Adobe Illustrator 20.1.0, SVG Export Plug-In . SVG Version: 6.00 Build 0)  -->
<svg version="1.1" id="レイヤー_1" xmlns="http://www.w3.org/2000/svg" xmlns:xlink="http://www.w3.org/1999/xlink" x="0px"
	 y="0px" viewBox="0 0 111.6578903 18.0137329" style="enable-background:new 0 0 111.6578903 18.0137329;" xml:space="preserve">
<style type="text/css">
	.st0{fill:#FFFFFF;}
</style>
<g>
	<g>
		<path class="st0" d="M30.368042,4.4261642c0.0214024-0.1033974,0.0562649-0.1563969,0.1077843-0.1563969
			c0.0493507,0,0.0889702,0.0290642,0.1709652,0.1891036l1.7269764,3.4331484l1.7218513-3.4781942
			c0.0482407-0.0968561,0.0819931-0.1440578,0.1382599-0.1440578c0.0584259,0,0.094326,0.0587974,0.1143227,0.1891036
			l0.5777931,3.7605858c0.0552292,0.3840046,0.1179657,0.5603971,0.3089256,0.6140652
			c0.1821938,0.0552301,0.3103409,0.0631838,0.3912163,0.0631838c0.0585022,0,0.1034737,0.0036421,0.1034737,0.040288
			c0,0.0493574-0.0776787,0.0674944-0.1662102,0.0674944c-0.1586266,0-1.0308533-0.018137-1.2834358-0.035903
			c-0.1473274-0.0112982-0.1843452-0.0315914-0.1843452-0.0682373c0-0.029808,0.0235634-0.0475731,0.0696487-0.0668259
			c0.0370178-0.0112238,0.0573845-0.0885305,0.0312195-0.2605371l-0.3807335-2.6793365h-0.0235634l-1.3799858,2.7624407
			c-0.1462936,0.2885609-0.1775169,0.341486-0.2348251,0.341486c-0.0551567,0-0.1194534-0.1219063-0.2214394-0.3011971
			c-0.1517143-0.2816486-0.6539822-1.2144542-0.7283897-1.3828931c-0.0573845-0.1284475-0.4359627-0.8972006-0.6584415-1.3523421
			h-0.0235653l-0.3292198,2.4230356c-0.0144958,0.1082296-0.0202942,0.1888065-0.0202942,0.2842503
			c0,0.1168518,0.0831051,0.1720066,0.1934147,0.1956444c0.1121693,0.0246792,0.2000313,0.0326328,0.2638836,0.0326328
			c0.0493565,0,0.0944023,0.0108519,0.0944023,0.040288c0,0.0562706-0.0562706,0.0674944-0.1517887,0.0674944
			c-0.2649231,0-0.5505848-0.018137-0.6641655-0.018137c-0.1212311,0-0.4246655,0.018137-0.6268501,0.018137
			c-0.0642242,0-0.1146965-0.0112238-0.1146965-0.0674944c0-0.0294361,0.0392475-0.040288,0.102356-0.040288
			c0.0504723,0,0.0932884,0,0.1898479-0.0210371c0.1775074-0.0352335,0.2268639-0.2722073,0.2594967-0.4801912L30.368042,4.4261642z
			"/>
		<path class="st0" d="M51.8411598,8.5976629c0,0.1650944-0.0079498,0.1752777-0.083107,0.216979
			c-0.4112091,0.207612-1.0304031,0.2762213-1.5240517,0.2762213c-1.552742,0-2.9250793-0.7066851-2.9250793-2.3878765
			c0-0.9719791,0.5270195-1.654357,1.1012497-1.9878898c0.6079636-0.3539,1.1712608-0.398128,1.7014847-0.398128
			c0.4359589,0,0.993454,0.0732923,1.120491,0.0968561c0.1349945,0.0257936,0.3538246,0.0628114,0.5022697,0.0697241
			c0.0741081,0.0043116,0.0864487,0.0290647,0.0864487,0.0707655c0,0.0674944-0.04356,0.2380886-0.04356,0.998888
			c0,0.0968561-0.0192528,0.1284475-0.0697174,0.1284475c-0.0439377,0-0.0562782-0.0315914-0.0631142-0.078793
			c-0.0199966-0.1404152-0.05159-0.3371749-0.2145271-0.5070262C51.238987,4.9027882,50.7319603,4.621809,50.0205917,4.621809
			c-0.3506279,0-0.8123131,0.0257936-1.2551079,0.3774633C48.4101715,5.2845626,48.1833,5.7411909,48.1833,6.4910631
			c0,1.3087831,0.8663521,2.2887907,2.2013016,2.2887907c0.1630135,0,0.3854904,0,0.5372047-0.0664539
			c0.0958138-0.0449715,0.1216087-0.1216087,0.1216087-0.2246351v-0.575635c0-0.3034277,0-0.5335631-0.0058708-0.7157536
			c-0.0064697-0.206943-0.0638542-0.3056574-0.2728767-0.3469868c-0.0504723-0.0123391-0.157589-0.0181375-0.2461166-0.0181375
			c-0.057312,0-0.0954399-0.0123391-0.0954399-0.0493569c0-0.0486884,0.0449677-0.0595407,0.1335716-0.0595407
			c0.3302689,0,0.7269783,0.0166507,0.9171944,0.0166507c0.1952744,0,0.53022-0.0166507,0.7414742-0.0166507
			c0.0809555,0,0.1248779,0.0108523,0.1248779,0.0595407c0,0.0370178-0.0370178,0.0493569-0.0831032,0.0493569
			c-0.048317,0-0.0944023,0.0057983-0.1688118,0.0181375c-0.1731186,0.0304766-0.2348175,0.1335764-0.2413597,0.3469868
			c-0.0057945,0.1821904-0.0057945,0.424665-0.0057945,0.7295051V8.5976629z"/>
		<path class="st0" d="M57.6557236,7.4154696c-0.031601,0-0.0439377,0.0134544-0.0551643,0.0493569L57.257885,8.3334093
			c-0.0631104,0.1553555-0.0932884,0.3005285-0.0932884,0.3720369c0,0.1091957,0.0562782,0.1912594,0.251545,0.1912594h0.0958138
			c0.0751495,0,0.0944023,0.0108519,0.0944023,0.0479441c0,0.0486145-0.0396194,0.0598383-0.1067352,0.0598383
			c-0.2036057,0-0.475441-0.018137-0.6710854-0.018137c-0.0707588,0-0.4181252,0.018137-0.747345,0.018137
			c-0.0819893,0-0.120121-0.0112238-0.120121-0.0598383c0-0.0370922,0.0246773-0.0479441,0.0751495-0.0479441
			c0.057312,0,0.1462212-0.0079536,0.1955719-0.0138264c0.2933235-0.035531,0.4134407-0.243515,0.5393677-0.5494699
			l1.5879707-3.8207955c0.0740356-0.1764669,0.1157417-0.2428465,0.1774368-0.2428465
			c0.0573807,0,0.0954399,0.0529995,0.1575089,0.1934147c0.1528282,0.3339787,1.162941,2.8198261,1.5698395,3.7431922
			c0.2406158,0.5488005,0.4249611,0.6340609,0.5563812,0.6641655c0.0965614,0.0182123,0.1908875,0.026166,0.2664108,0.026166
			c0.0504723,0,0.0831032,0.0036421,0.0831032,0.0479441c0,0.0486145-0.0584259,0.0598383-0.2910881,0.0598383
			c-0.2282753,0-0.6889191,0-1.1959381-0.0112238c-0.1154442-0.0069132-0.1898537-0.0069132-0.1898537-0.0486145
			c0-0.0370922,0.0247536-0.0479441,0.0878639-0.0558977c0.0450439-0.0130835,0.0874901-0.0664539,0.0584259-0.1393747
			l-0.5081406-1.2899766c-0.0112267-0.0304766-0.0326347-0.043931-0.0616989-0.043931H57.6557236z M58.9492607,7.1110015
			c0.0301056,0,0.0370255-0.017097,0.0301056-0.0348625l-0.5698395-1.5047989
			c-0.0054245-0.0236382-0.0123367-0.0529995-0.0312195-0.0529995c-0.0191765,0-0.0326309,0.0293612-0.0359039,0.0529995
			l-0.5843315,1.4967709c-0.0069122,0.0257936,0,0.0428905,0.0268364,0.0428905H58.9492607z"/>
		<path class="st0" d="M40.5529327,7.4154696c-0.0327034,0-0.0450439,0.0134544-0.0573845,0.0493569l-0.339325,0.8685827
			c-0.0664597,0.1553555-0.0969353,0.3005285-0.0969353,0.3720369c0,0.1091957,0.0584259,0.1912594,0.2529564,0.1912594h0.0955162
			c0.0744095,0,0.0954437,0.0108519,0.0954437,0.0479441c0,0.0486145-0.0392418,0.0598383-0.1088982,0.0598383
			c-0.2021828,0-0.4729042-0.018137-0.6685486-0.018137c-0.0718803,0-0.4203568,0.018137-0.748455,0.018137
			c-0.0819969,0-0.1204987-0.0112238-0.1204987-0.0598383c0-0.0370922,0.026165-0.0479441,0.0766411-0.0479441
			c0.0561905,0,0.1462059-0.0079536,0.1955643-0.0138264c0.2910881-0.035531,0.4112854-0.243515,0.5372047-0.5494699
			l1.5901413-3.8207955c0.0775986-0.1764669,0.1120872-0.2428465,0.1752701-0.2428465
			c0.0595398,0,0.0965576,0.0529995,0.159668,0.1934147c0.1517143,0.3339787,1.162941,2.8198261,1.5698395,3.7431922
			c0.2391319,0.5488005,0.4235497,0.6340609,0.5549049,0.6641655c0.0958099,0.0182123,0.1890945,0.026166,0.2664032,0.026166
			c0.0508423,0,0.0831795,0.0036421,0.0831795,0.0479441c0,0.0486145-0.0595436,0.0598383-0.2907906,0.0598383
			c-0.2282715,0-0.6888466,0-1.1948318-0.0112238c-0.1168518-0.0069132-0.1930351-0.0069132-0.1930351-0.0486145
			c0-0.0370922,0.0257111-0.0479441,0.0885239-0.0558977c0.0449715-0.0130835,0.0900154-0.0664539,0.0595398-0.1393747
			L42.027256,7.4594007c-0.0112991-0.0304766-0.0327072-0.043931-0.062809-0.043931H40.5529327z M41.8428421,7.1110015
			c0.033741,0,0.0395393-0.017097,0.033741-0.0348625l-0.5698357-1.5047989
			c-0.0075836-0.0236382-0.0144958-0.0529995-0.0326347-0.0529995c-0.0177574,0-0.0312195,0.0293612-0.0370178,0.0529995
			l-0.5832901,1.4967709c-0.0065422,0.0257936,0,0.0428905,0.0246773,0.0428905H41.8428421z"/>
		<path class="st0" d="M65.3760986,6.1680117c0-0.9258933,0-1.0947037-0.0101852-1.2899022
			c-0.0133743-0.2076125-0.0642242-0.3035021-0.2739868-0.3473587c-0.0497208-0.0123391-0.1575089-0.018137-0.2438889-0.018137
			c-0.0718842,0-0.1103821-0.0123396-0.1103821-0.0537429c0-0.0450459,0.0450439-0.0547838,0.1404877-0.0547838
			c0.335022,0,0.7327728,0.0166507,0.8663483,0.0166507c0.2159424,0,0.6968765-0.0166507,0.8925171-0.0166507
			c0.3988724,0,0.8213806,0.0355315,1.1639862,0.2591252c0.1767654,0.1168518,0.4315872,0.4283075,0.4315872,0.8362474
			c0,0.4482284-0.1963959,0.8630815-0.8358841,1.3617826c0.5607681,0.6812625,0.9988098,1.2227793,1.3730011,1.6028442
			c0.3553925,0.3505554,0.6126556,0.3956013,0.7092133,0.411582c0.0686188,0.0130835,0.1259995,0.0210371,0.1763992,0.0210371
			c0.0519562,0,0.0755157,0.0156097,0.0755157,0.0479441c0,0.0486145-0.0439301,0.0598383-0.120491,0.0598383h-0.601059
			c-0.3538971,0-0.5125275-0.0301046-0.6754608-0.115736c-0.2729492-0.1393747-0.5124588-0.4246655-0.8674698-0.8936329
			c-0.2540741-0.3346477-0.5440445-0.7506156-0.6282578-0.8413019c-0.0304794-0.034862-0.0674973-0.0428157-0.1125488-0.0428157
			l-0.5484238-0.0123396c-0.0333786,0-0.0536728,0.0123396-0.0536728,0.0493574v0.0841451
			c0,0.5676818,0,1.0486164,0.0326309,1.3037281c0.0210419,0.1775074,0.0573883,0.3114557,0.2471695,0.3346472
			c0.0943985,0.0123396,0.2337646,0.026166,0.3078003,0.026166c0.0518875,0,0.0776825,0.0156097,0.0776825,0.0479441
			c0,0.0417013-0.0439301,0.0598383-0.1259232,0.0598383c-0.3673477,0-0.8362427-0.018137-0.9306488-0.018137
			c-0.1212387,0-0.5189896,0.018137-0.7730637,0.018137c-0.0809479,0-0.1259918-0.018137-0.1259918-0.0598383
			c0-0.0323343,0.0250473-0.0479441,0.1013184-0.0479441c0.0943222,0,0.1720047-0.0138264,0.2282715-0.026166
			c0.1281509-0.0231915,0.1571426-0.1571398,0.1829376-0.3346472c0.0304718-0.2551117,0.0304718-0.7360463,0.0304718-1.2964435
			V6.1680117z M66.1234436,6.6489468c0,0.0663795,0.013382,0.0910583,0.0584259,0.1077828
			c0.1324615,0.0428162,0.3211975,0.0631833,0.4809341,0.0631833c0.2529602,0,0.3339081-0.0257936,0.4482269-0.1045866
			c0.1912613-0.1328335,0.3756866-0.4137383,0.3756866-0.911324c0-0.8641963-0.5971222-1.1161113-0.9698257-1.1161113
			c-0.1586304,0-0.2722092,0.0079536-0.335022,0.0272059c-0.0450439,0.0098119-0.0584259,0.0370178-0.0584259,0.0820637V6.6489468z"
			/>
		<path class="st0" d="M74.2056808,6.1680117c0-0.9258933,0-1.0947037-0.0123291-1.2899022
			c-0.0134659-0.2076125-0.0754547-0.3092999-0.2137909-0.3419323c-0.0707626-0.0177655-0.1517105-0.0235634-0.2290192-0.0235634
			c-0.0616989,0-0.1034012-0.0123396-0.1034012-0.0617709c0-0.0370178,0.0515137-0.0467558,0.1527557-0.0467558
			c0.2428513,0,0.6395645,0.0166507,0.8239059,0.0166507c0.1582642,0,0.5314178-0.0166507,0.7720261-0.0166507
			c0.0820007,0,0.1324615,0.009738,0.1324615,0.0467558c0,0.0494313-0.0381317,0.0617709-0.1012421,0.0617709
			c-0.0628128,0-0.1121674,0.0057979-0.1887283,0.018137c-0.1705933,0.0293617-0.2224808,0.1324615-0.2348175,0.3473587
			c-0.0134583,0.1951985-0.0134583,0.3640089-0.0134583,1.2899022V7.239449c0,0.5916171,0,1.0706935,0.025795,1.3335357
			c0.0181351,0.164053,0.0653381,0.2743635,0.2518387,0.297555c0.0896454,0.0123396,0.2290192,0.026166,0.3245392,0.026166
			c0.0696487,0,0.1022797,0.0156097,0.1022797,0.0479441c0,0.0417013-0.0536652,0.0598383-0.1211624,0.0598383
			c-0.4181137,0-0.8159485-0.018137-0.9869156-0.018137c-0.1469574,0-0.5436707,0.018137-0.7999039,0.018137
			c-0.0799026,0-0.1248779-0.018137-0.1248779-0.0598383c0-0.0323343,0.0272064-0.0479441,0.1012421-0.0479441
			c0.0954437,0,0.1694794-0.0138264,0.229393-0.026166c0.1256256-0.0231915,0.1626434-0.1255484,0.1818161-0.305583
			c0.0315933-0.2548141,0.0315933-0.7338905,0.0315933-1.3255076V6.1680117z"/>
		<path class="st0" d="M84.7041931,8.5976629c0,0.1650944-0.0058746,0.1752777-0.0820694,0.216979
			c-0.4104614,0.207612-1.030777,0.2762213-1.526207,0.2762213c-1.5498428,0-2.9218063-0.7066851-2.9218063-2.3878765
			c0-0.9719791,0.5248718-1.654357,1.1012421-1.9878898c0.6078949-0.3539,1.1708984-0.398128,1.7025986-0.398128
			c0.4358902,0,0.9912338,0.0732923,1.1193085,0.0968561c0.1325455,0.0257936,0.3550186,0.0628114,0.5013046,0.0697241
			c0.0761871,0.0043116,0.0885315,0.0290647,0.0885315,0.0707655c0,0.0674944-0.0449753,0.2380886-0.0449753,0.998888
			c0,0.0968561-0.0199966,0.1284475-0.0708389,0.1284475c-0.0449677,0-0.0551529-0.0315914-0.0616913-0.078793
			c-0.0191803-0.1404152-0.0503998-0.3371749-0.2159424-0.5070262c-0.1898422-0.1930428-0.6953812-0.4740219-1.4100952-0.4740219
			c-0.3473587,0-0.8126144,0.0257936-1.2532578,0.3774633c-0.3549423,0.2852902-0.5829239,0.7419186-0.5829239,1.4917908
			c0,1.3087831,0.8663559,2.2887907,2.2024155,2.2887907c0.1640549,0,0.3865356,0,0.5382462-0.0664539
			c0.0944061-0.0449715,0.1190872-0.1216087,0.1190872-0.2246351v-0.575635c0-0.3034277,0-0.5335631-0.006546-0.7157536
			c-0.0057983-0.206943-0.063179-0.3056574-0.2722092-0.3469868c-0.0471954-0.0123391-0.157135-0.0181375-0.2471542-0.0181375
			c-0.0559006,0-0.092247-0.0123391-0.092247-0.0493569c0-0.0486884,0.0417786-0.0595407,0.1317902-0.0595407
			c0.3281174,0,0.7269821,0.0166507,0.916832,0.0166507c0.1966782,0,0.5317001-0.0166507,0.7418442-0.0166507
			c0.0809402,0,0.1256256,0.0108523,0.1256256,0.0595407c0,0.0370178-0.0370255,0.0493569-0.0820694,0.0493569
			c-0.0503998,0-0.0943298,0.0057983-0.1694794,0.0181375c-0.1709671,0.0304766-0.2369766,0.1335764-0.2428513,0.3469868
			c-0.0064621,0.1821904-0.0064621,0.424665-0.0064621,0.7295051V8.5976629z"/>
		<path class="st0" d="M90.3949127,7.4154696c-0.0326309,0-0.0449753,0.0134544-0.057312,0.0493569l-0.3440933,0.8685827
			c-0.0616913,0.1553555-0.0918732,0.3005285-0.0918732,0.3720369c0,0.1091957,0.0548553,0.1912594,0.2515411,0.1912594h0.0965652
			c0.0744019,0,0.0958099,0.0108519,0.0958099,0.0479441c0,0.0486145-0.0395432,0.0598383-0.1081467,0.0598383
			c-0.2032318,0-0.4740295-0.018137-0.6707153-0.018137c-0.0708389,0-0.4181213,0.018137-0.747345,0.018137
			c-0.0820618,0-0.1201172-0.0112238-0.1201172-0.0598383c0-0.0370922,0.0257187-0.0479441,0.0761871-0.0479441
			c0.0562744,0,0.1462936-0.0079536,0.1956482-0.0138264c0.2910919-0.035531,0.4100952-0.243515,0.5371323-0.5494699
			l1.5890121-3.8207955c0.0751495-0.1764669,0.1136551-0.2428465,0.1775131-0.2428465
			c0.0584259,0,0.0954437,0.0529995,0.1586227,0.1934147c0.1517258,0.3339787,1.1628647,2.8198261,1.5697632,3.7431922
			c0.2395859,0.5488005,0.4225159,0.6340609,0.5553436,0.6641655c0.0954437,0.0182123,0.1920013,0.026166,0.2660446,0.026166
			c0.0507736,0,0.0834808,0.0036421,0.0834808,0.0479441c0,0.0486145-0.0599213,0.0598383-0.2910995,0.0598383
			c-0.2282715,0-0.6899567,0-1.1948166-0.0112238c-0.1169357-0.0069132-0.1931305-0.0069132-0.1931305-0.0486145
			c0-0.0370922,0.025795-0.0479441,0.0885315-0.0558977c0.0450439-0.0130835,0.0900192-0.0664539,0.056282-0.1393747
			l-0.504509-1.2899766c-0.0134583-0.0304766-0.0326309-0.043931-0.0628128-0.043931H90.3949127z M91.6848831,7.1110015
			c0.0337524,0,0.0395508-0.017097,0.0337524-0.0348625l-0.5709534-1.5047989
			c-0.006546-0.0236382-0.0134583-0.0529995-0.0312195-0.0529995c-0.0192566,0-0.0315933,0.0293612-0.0395508,0.0529995
			l-0.5810547,1.4967709c-0.006546,0.0257936,0,0.0428905,0.024971,0.0428905H91.6848831z"/>
		<path class="st0" d="M97.2983093,4.9992723c-0.0754623-0.2257495-0.1440659-0.3709221-0.2337112-0.4304628
			c-0.0686111-0.0449715-0.1967621-0.0561957-0.251915-0.0561957c-0.063858,0-0.102356-0.0055008-0.102356-0.0537429
			c0-0.0450459,0.0518799-0.0547838,0.1404953-0.0547838c0.3258667,0,0.6764984,0.0166507,0.7327652,0.0166507
			c0.0562744,0,0.335022-0.0166507,0.7012558-0.0166507c0.0889053,0,0.1349945,0.0166507,0.1349945,0.0547838
			c0,0.0482421-0.0518799,0.0537429-0.1135788,0.0537429c-0.05159,0-0.1168594,0-0.1582565,0.0235634
			c-0.0599136,0.0239353-0.0711365,0.0686092-0.0711365,0.1343198c0,0.0816178,0.0631027,0.287446,0.1382599,0.5592823
			c0.1081543,0.4010272,0.6979828,2.246346,0.810524,2.5878325h0.0210342l1.2249451-3.1700091
			c0.0653305-0.1709661,0.1103745-0.2214384,0.1607742-0.2214384c0.0675659,0,0.1002045,0.0922475,0.1833038,0.2889328
			l1.3171844,3.0586581h0.0177689c0.1135788-0.4054871,0.619194-2.0136833,0.8416672-2.7251253
			c0.0439377-0.1404157,0.0631866-0.2685657,0.0631866-0.3527851c0-0.0975995-0.0573883-0.1832309-0.3049164-0.1832309
			c-0.0627365,0-0.1077805-0.0188808-0.1077805-0.0537429c0-0.0450459,0.0518875-0.0547838,0.1451721-0.0547838
			c0.335762,0,0.6032867,0.0166507,0.6605988,0.0166507c0.0428162,0,0.3157654-0.0166507,0.5237503-0.0166507
			c0.0718765,0,0.1125412,0.009738,0.1125412,0.0467558c0,0.0428901-0.0294342,0.0617709-0.0857086,0.0617709
			c-0.0649643,0-0.1538696,0.0057979-0.2224808,0.031517c-0.1517105,0.0541143-0.2213593,0.2976298-0.3527832,0.6438732
			c-0.2943573,0.7677121-0.9585266,2.7040153-1.2674484,3.616528c-0.0707703,0.2126675-0.1001282,0.2863312-0.1843491,0.2863312
			c-0.0620651,0-0.1002045-0.0736637-0.1956482-0.3009005l-1.3171768-3.0487719h-0.0112305
			c-0.1190796,0.3110099-0.9618683,2.4651833-1.2347412,3.0248365c-0.1205597,0.2511721-0.1506729,0.3248358-0.2272415,0.3248358
			c-0.0638504,0-0.0900116-0.0686092-0.1459122-0.2267904L97.2983093,4.9992723z"/>
		<path class="st0" d="M108.1459503,7.4154696c-0.0323334,0-0.0446777,0.0134544-0.0570145,0.0493569l-0.3408203,0.8685827
			c-0.0616913,0.1553555-0.0954437,0.3005285-0.0954437,0.3720369c0,0.1091957,0.0562744,0.1912594,0.251915,0.1912594h0.0954514
			c0.0765686,0,0.0954361,0.0108519,0.0954361,0.0479441c0,0.0486145-0.0381317,0.0598383-0.1077805,0.0598383
			c-0.2047043,0-0.4743958-0.018137-0.6696625-0.018137c-0.0686111,0-0.4181213,0.018137-0.747345,0.018137
			c-0.0819931,0-0.120491-0.0112238-0.120491-0.0598383c0-0.0370922,0.0246735-0.0479441,0.0755157-0.0479441
			c0.0584259,0,0.1470337-0.0079536,0.1977997-0.0138264c0.2899704-0.035531,0.4101715-0.243515,0.5372086-0.5494699
			l1.5878983-3.8207955c0.0761948-0.1764669,0.1132126-0.2428465,0.1775131-0.2428465
			c0.0573044,0,0.0921707,0.0529995,0.1582489,0.1934147c0.1506042,0.3339787,1.1621246,2.8198261,1.5690231,3.7431922
			c0.2413635,0.5488005,0.4235535,0.6340609,0.5571289,0.6641655c0.0944061,0.0182123,0.1891098,0.026166,0.2642517,0.026166
			c0.0503998,0,0.083107,0.0036421,0.083107,0.0479441c0,0.0486145-0.0562668,0.0598383-0.2910843,0.0598383
			c-0.2268677,0-0.6910782,0-1.1955795-0.0112238c-0.111412-0.0069132-0.1898422-0.0069132-0.1898422-0.0486145
			c0-0.0370922,0.0236359-0.0479441,0.0886002-0.0558977c0.0449753-0.0130835,0.0900192-0.0664539,0.057312-0.1393747
			l-0.5077667-1.2899766c-0.0101776-0.0304766-0.0315933-0.043931-0.0620728-0.043931H108.1459503z M109.4373398,7.1110015
			c0.0315933,0,0.0370178-0.017097,0.0315933-0.0348625l-0.5698395-1.5047989
			c-0.0069122-0.0236382-0.0112991-0.0529995-0.0304794-0.0529995c-0.0199966,0-0.0312195,0.0293612-0.0381317,0.0529995
			l-0.5843353,1.4967709c-0.0069122,0.0257936,0,0.0428905,0.0268402,0.0428905H109.4373398z"/>
	</g>
	<g>
		<polygon class="st0" points="1.8126074,9.0077591 0.9070073,9.0077591 0.90448,9.0077591 6.3302755,18.0137329 
			7.2358756,18.0137329 		"/>
		<polygon class="st0" points="6.277276,0 5.3695202,0 0,9.0077591 0.90448,9.0077591 0.9070073,9.0077591 		"/>
		<polygon class="st0" points="11.6446457,9.0077591 10.7129545,9.0077591 16.0824795,0 12.6830788,0 7.3157091,9.0077591 
			8.2441292,9.0077591 13.6978741,18.0137329 17.0925922,18.0137329 		"/>
		<polygon class="st0" points="5.9749632,9.0077591 5.052341,9.0077591 10.4207563,0 8.5744658,0 3.2070961,9.0077591 
			4.1264482,9.0077591 9.5555191,18.0137329 11.3996439,18.0137329 		"/>
	</g>
</g>
</svg>
